<svg width="30" height="30" viewBox="0 0 30 30" fill="none" xmlns="http://www.w3.org/2000/svg">
<path d="M15.0251 0.000229119C23.1993 -0.0424635 29.9586 6.69414 29.9998 14.9132C30.0424 23.1499 23.3669 29.969 15.0751 29.9999C6.77297 30.0323 0.0592069 23.3693 0.000378741 15.0943C-0.0584494 6.73241 6.74356 -0.0454078 15.0251 0.000229119ZM18.7607 14.1668V14.1639C19.5799 14.1639 20.4005 14.1639 21.2197 14.1639C21.7065 14.1639 21.7639 14.1006 21.7256 13.6015C21.7006 13.2717 21.6874 12.939 21.6344 12.6137C21.4447 11.4433 21.2432 10.2759 21.0388 9.10848C20.9991 8.88176 20.8947 8.75074 20.6108 8.78166C19.1416 8.94801 17.6694 9.09817 16.1972 9.24097C15.9178 9.26747 15.8207 9.38377 15.8222 9.65906C15.831 11.0179 15.831 12.3781 15.8252 13.7369C15.8237 14.0505 15.9472 14.1756 16.262 14.1712C17.0944 14.1595 17.9253 14.1668 18.7577 14.1668H18.7607ZM25.8451 14.1668C26.4701 14.1668 27.0952 14.1668 27.7202 14.1668C28.2702 14.1668 28.3217 14.1359 28.2394 13.5735C28.1364 12.8728 28.0085 12.172 27.8423 11.4831C27.4834 10.0021 26.8098 8.66241 25.9554 7.40813C25.8053 7.18731 25.6789 7.15639 25.4127 7.27122C24.6053 7.61718 23.7787 7.92339 22.9478 8.21046C22.6919 8.29879 22.6051 8.41951 22.658 8.66241C22.7257 8.97304 22.8316 9.27925 22.8728 9.59282C23.0537 10.9649 23.2228 12.3384 23.3802 13.7119C23.4155 14.0255 23.5272 14.1771 23.8596 14.1698C24.5214 14.1565 25.1832 14.1653 25.8451 14.1668ZM4.16688 14.1698C4.16688 14.1698 4.16688 14.1683 4.16688 14.1668C4.8037 14.1668 5.43904 14.1683 6.07586 14.1668C6.5656 14.1653 6.58472 14.1403 6.60678 13.6471C6.68032 11.9659 6.93181 10.3112 7.34654 8.68155C7.41714 8.40331 7.28478 8.30909 7.06123 8.2296C6.24793 7.93664 5.42433 7.65987 4.63015 7.3198C4.30807 7.18142 4.16394 7.23 3.97863 7.50235C2.70059 9.38377 1.97995 11.4639 1.7211 13.7149C1.67992 14.08 1.76228 14.1683 2.14614 14.1698C2.81972 14.1727 3.49183 14.1698 4.16541 14.1698H4.16688ZM11.188 14.1668C12.0337 14.1668 12.8779 14.1595 13.7235 14.1712C14.0177 14.1756 14.1544 14.0682 14.153 13.7679C14.1486 12.3826 14.1486 10.9973 14.153 9.61195C14.153 9.37052 14.0588 9.266 13.8103 9.24391C12.494 9.1232 11.1792 8.9907 9.86439 8.85821C9.08786 8.78018 9.01579 8.76546 8.88196 9.51774C8.63194 10.9251 8.4731 12.3502 8.28338 13.7679C8.24367 14.0623 8.38486 14.1786 8.69077 14.1742C9.52319 14.158 10.3571 14.1683 11.1895 14.1683L11.188 14.1668ZM4.18012 15.8451V15.8421C3.49477 15.8421 2.80942 15.8436 2.12408 15.8421C1.84758 15.8421 1.67845 15.9187 1.71669 16.247C1.95789 18.3183 2.5697 20.2616 3.68743 22.0311C4.12129 22.7186 4.1257 22.7156 4.88164 22.3918C4.91547 22.377 4.95077 22.3667 4.98459 22.355C5.63759 22.1165 6.29058 21.8765 6.94504 21.638C7.198 21.5453 7.37743 21.4658 7.28919 21.0948C6.90533 19.4975 6.65678 17.8752 6.60384 16.2293C6.59502 15.9393 6.47295 15.8407 6.20087 15.8436C5.52728 15.851 4.8537 15.8465 4.18159 15.8465L4.18012 15.8451ZM25.8774 15.8451V15.8421C25.2288 15.8421 24.5803 15.8392 23.9317 15.8421C23.4669 15.8436 23.3993 15.904 23.3802 16.3662C23.3154 17.962 23.1081 19.5373 22.7007 21.083C22.6272 21.3627 22.7022 21.4952 22.9845 21.5983C23.8552 21.9148 24.72 22.2534 25.5744 22.6126C25.8568 22.7304 25.9583 22.5714 26.0715 22.4006C27.3069 20.5427 28.0496 18.5097 28.2629 16.2838C28.2938 15.9628 28.1849 15.8348 27.8599 15.8407C27.1996 15.8524 26.5378 15.8451 25.8774 15.8451ZM18.8019 15.8451V15.8421C17.9944 15.8421 17.187 15.8421 16.3781 15.8421C15.8663 15.8421 15.8281 15.8804 15.8266 16.3765C15.8266 17.6014 15.8252 18.8262 15.8266 20.0525C15.8266 20.5545 15.8781 20.5751 16.3634 20.6193C17.7018 20.74 19.0401 20.871 20.374 21.0271C20.977 21.0977 21.0462 21.0963 21.1417 20.475C21.3491 19.1089 21.5374 17.7397 21.7227 16.3706C21.783 15.9246 21.7065 15.848 21.2609 15.8465C20.4402 15.8436 19.621 15.8465 18.8004 15.8465L18.8019 15.8451ZM11.2116 15.8451C10.3791 15.8436 9.54672 15.8539 8.7143 15.8377C8.37604 15.8318 8.26426 15.9511 8.27897 16.2911C8.34515 17.7397 8.55399 19.1633 8.88196 20.5751C8.9952 21.0609 9.00109 21.1036 9.6129 21.0344C10.9601 20.8799 12.3102 20.7385 13.6603 20.6266C14.0221 20.5972 14.1588 20.4824 14.1559 20.1246C14.1456 18.8498 14.1456 17.5763 14.1559 16.3014C14.1588 15.9732 14.0427 15.8362 13.7059 15.8421C12.8735 15.8554 12.041 15.8465 11.2086 15.8465L11.2116 15.8451ZM15.8266 25.2374H15.8296C15.8296 26.0471 15.8281 26.8568 15.8296 27.6665C15.8296 28.1641 15.884 28.2024 16.3267 28.0022C16.5811 27.8873 16.8399 27.7681 17.0694 27.6106C18.693 26.4947 19.5975 24.8562 20.3196 23.0896C20.4549 22.7583 20.2564 22.6597 19.9946 22.6332C18.7519 22.5095 17.5091 22.3947 16.2664 22.2784C15.931 22.2475 15.8134 22.408 15.8193 22.7363C15.834 23.5695 15.8237 24.4042 15.8237 25.2374H15.8266ZM14.1515 25.2316C14.1515 24.3865 14.1456 23.5401 14.1544 22.695C14.1574 22.3785 14.0368 22.2475 13.7147 22.2784C13.325 22.3152 12.9308 22.3108 12.5425 22.3505C11.691 22.4389 10.8395 22.536 9.99087 22.645C9.77762 22.6729 9.49083 22.723 9.65408 23.0513C10.0732 23.8934 10.4615 24.7561 10.9601 25.5495C11.6307 26.6183 12.4881 27.5208 13.6941 28.0154C14.0941 28.1803 14.15 28.1479 14.1515 27.696C14.1559 26.8745 14.1515 26.053 14.1515 25.233V25.2316ZM15.8281 4.70083C15.8281 5.49727 15.8266 6.29371 15.8281 7.08867C15.8296 7.53915 15.8693 7.59657 16.309 7.55535C17.5371 7.44052 18.7651 7.3095 19.9902 7.17259C20.3387 7.13431 20.4108 6.9974 20.2358 6.67205C19.7622 5.7917 19.3181 4.88927 18.7666 4.05897C18.1518 3.13151 17.3429 2.38071 16.2781 1.96703C15.8869 1.8154 15.8296 1.85957 15.8281 2.27619C15.8237 3.0844 15.8281 3.89262 15.8266 4.70083H15.8281ZM14.1515 4.73028C14.1515 4.73028 14.1515 4.73028 14.15 4.73028C14.15 3.89703 14.15 3.06232 14.15 2.22908C14.15 1.95378 14.0706 1.78154 13.7588 1.95231C13.3853 2.15694 12.9823 2.32477 12.6484 2.58092C11.2571 3.65118 10.4291 5.12629 9.75115 6.70739C9.60849 7.04009 9.6982 7.15198 10.0232 7.18436C11.2527 7.30655 12.4808 7.43169 13.7088 7.56271C14.0559 7.59951 14.1618 7.44641 14.1574 7.11959C14.1456 6.32315 14.153 5.52524 14.153 4.7288L14.1515 4.73028ZM19.8769 27.3102C20.0755 27.2793 20.1976 27.2867 20.2946 27.2425C21.8639 26.5256 23.2816 25.5893 24.4905 24.3453C24.6744 24.1569 24.6553 24.0038 24.4391 23.9199C23.7684 23.6608 23.089 23.4237 22.4095 23.1867C22.1977 23.1131 22.0904 23.2103 21.9948 23.4179C21.583 24.3026 21.1638 25.1845 20.7108 26.0486C20.4932 26.4623 20.1946 26.8347 19.8769 27.3102ZM10.0218 27.3456C10.0276 27.2072 10.0394 27.1763 10.0291 27.1601C9.17463 26.003 8.50105 24.7502 8.00248 23.4017C7.93188 23.2088 7.78629 23.1146 7.56421 23.197C6.90092 23.4414 6.23175 23.6725 5.57435 23.9272C5.31844 24.0259 5.34639 24.176 5.53317 24.3674C6.62884 25.4907 7.901 26.3637 9.30405 27.0511C9.52319 27.1586 9.75703 27.2366 10.0232 27.3441L10.0218 27.3456ZM10.1041 2.69281C9.95704 2.69281 9.89086 2.67367 9.8438 2.69575C8.29662 3.37883 6.89504 4.2798 5.692 5.47666C5.39933 5.76668 5.42139 5.88592 5.81554 6.03314C6.39941 6.25102 6.98916 6.45417 7.57745 6.66322C7.83335 6.75449 7.96865 6.66616 8.08778 6.41295C8.48634 5.56205 8.89961 4.71703 9.33788 3.88526C9.54525 3.49072 9.82174 3.13151 10.1071 2.69428L10.1041 2.69281ZM24.6185 5.78581C23.2346 4.36812 21.7403 3.32878 19.8946 2.6192C19.9593 2.7723 19.9711 2.82089 19.9975 2.85622C20.8138 3.96623 21.4477 5.17634 21.958 6.4527C22.0565 6.69708 22.2036 6.728 22.4183 6.65439C22.8345 6.51306 23.2566 6.38498 23.6669 6.22746C23.9684 6.11116 24.2538 5.95658 24.62 5.78581H24.6185Z" fill="white"/>
</svg>
