<?xml version="1.0" encoding="utf-8"?>
<!-- Generator: Adobe Illustrator 27.3.1, SVG Export Plug-In . SVG Version: 6.00 Build 0)  -->
<svg version="1.1" id="Layer_1" xmlns="http://www.w3.org/2000/svg" xmlns:xlink="http://www.w3.org/1999/xlink" x="0px" y="0px"
	 viewBox="0 0 54 54" style="enable-background:new 0 0 54 54;" xml:space="preserve">
<style type="text/css">
	.st0{fill:#FFA6EE;}
	.st1{fill-rule:evenodd;clip-rule:evenodd;fill:#FFFFFF;}
</style>
<path class="st0" d="M10,0h34c5.5,0,10,4.5,10,10v34c0,5.5-4.5,10-10,10H10C4.5,54,0,49.5,0,44V10C0,4.5,4.5,0,10,0z"/>
<path class="st1" d="M27,10c-9.4,0-17,7.6-17,16.9c0,7.5,4.9,13.8,11.6,16.1c0.9,0.1,1.2-0.4,1.2-0.8c0-0.4,0-1.7,0-3.2
	c-4.3,0.8-5.4-1-5.7-2c-0.2-0.5-1-2-1.7-2.4c-0.6-0.3-1.4-1.1,0-1.1c1.3,0,2.3,1.2,2.6,1.7c1.5,2.6,4,1.8,5,1.4
	c0.1-1.1,0.6-1.8,1.1-2.3c-3.8-0.4-7.7-1.9-7.7-8.4c0-1.8,0.7-3.4,1.7-4.5c-0.2-0.4-0.8-2.2,0.2-4.5c0,0,1.4-0.4,4.7,1.7
	c1.4-0.4,2.8-0.6,4.2-0.6s2.9,0.2,4.2,0.6C34.5,16.5,36,17,36,17c0.9,2.3,0.3,4.1,0.2,4.5c1.1,1.2,1.7,2.7,1.7,4.5
	c0,6.5-4,7.9-7.8,8.4c0.6,0.5,1.1,1.5,1.1,3.1c0,2.3,0,4.1,0,4.7c0,0.4,0.3,1,1.2,0.8C39.1,40.7,44,34.4,44,26.9
	C44,17.6,36.4,10,27,10z"/>
</svg>
