<?xml version="1.0" encoding="utf-8"?>
<!-- Generator: Adobe Illustrator 27.3.1, SVG Export Plug-In . SVG Version: 6.00 Build 0)  -->
<svg version="1.1" id="Layer_1" xmlns="http://www.w3.org/2000/svg" xmlns:xlink="http://www.w3.org/1999/xlink" x="0px" y="0px"
	 viewBox="0 0 54 54" style="enable-background:new 0 0 54 54;" xml:space="preserve">
<style type="text/css">
	.st0{fill:#FFA6EE;}
	.st1{fill-rule:evenodd;clip-rule:evenodd;fill:#FFFFFF;}
</style>
<path class="st0" d="M10,0h34c5.5,0,10,4.5,10,10v34c0,5.5-4.5,10-10,10H10C4.5,54,0,49.5,0,44V10C0,4.5,4.5,0,10,0z"/>
<path class="st1" d="M18.8,13c-1.8,0-3.3,1.5-3.3,3.3s1.5,3.3,3.3,3.3c1.8,0,3.3-1.5,3.3-3.3C22.1,14.5,20.6,13,18.8,13z M21.3,21
	h-5c-0.2,0-0.4,0.2-0.4,0.4v16.2c0,0.2,0.2,0.4,0.4,0.4h5c0.2,0,0.4-0.2,0.4-0.4V21.4C21.7,21.2,21.5,21,21.3,21z M29.7,22.5
	c0.9-1,2.4-1.9,4.4-1.9v0c5.7,0,6.4,4.1,6.4,8.1v8.9c0,0.2-0.2,0.4-0.4,0.4h-5c-0.2,0-0.4-0.2-0.4-0.4v-7.9c0-2.2-0.2-3.9-2.2-3.9
	c-1.9,0-2.6,1-2.6,3.7v8c0,0.2-0.2,0.4-0.4,0.4h-5c-0.2,0-0.4-0.2-0.4-0.4V21.4c0-0.2,0.2-0.4,0.4-0.4h4.8c0.2,0,0.4,0.2,0.4,0.4
	V22.5z"/>
</svg>
